# xmcd
#
# Track frame offsets:
#	150
#	40695
#	78318
#	106002
#	137201
#	179140
#	217400
#	249437
#
# Disc length: 3752 seconds
#
# Revision: 0
# Processed by: cddbd v1.5.2PL0 Copyright (c) Steve Scherf et al.
# Submitted via: dBpowerAMP V4.0
#
DISCID=700ea608
DTITLE=John McLaughlin - Floating Point
DYEAR=2008
DGENRE=Blues Rock
TTITLE0=Aggaji (For Alla Rakha)
TTITLE1=Raju
TTITLE2=Maharina
TTITLE3=Off The One
TTITLE4=The Voice
TTITLE5=Inside Out
TTITLE6=140
TTITLE7=Five Peace Band
EXTD=
EXTT0=
EXTT1=
EXTT2=
EXTT3=
EXTT4=
EXTT5=
EXTT6=
EXTT7=
PLAYORDER=
